<svg width="40" height="26" viewBox="0 0 40 26" fill="none" xmlns="http://www.w3.org/2000/svg">
<path d="M31.3226 25.0622C30.0254 25.0783 28.7369 24.8498 27.5244 24.3885C26.4381 23.9661 25.4566 23.3127 24.6478 22.4735C23.8511 21.6159 23.2357 20.6062 22.8387 19.505C22.4028 18.2867 22.1868 17.0007 22.201 15.7068C22.1918 14.4353 22.414 13.1727 22.8567 11.9807C23.2695 10.8691 23.9048 9.85356 24.7238 8.99615C25.5451 8.14937 26.5262 7.47398 27.6104 7.00913C28.7847 6.51235 30.0496 6.26523 31.3246 6.28348C32.6948 6.25421 34.0519 6.55593 35.2806 7.16305C36.3774 7.72562 37.3286 8.53515 38.0592 9.52788C38.7969 10.5414 39.3286 11.6908 39.6245 12.9082C39.9483 14.2036 40.0642 15.5409 39.9663 16.8723H27.1106C27.0587 18.1376 27.4924 19.371 28.322 20.3286C29.1932 21.0927 30.3321 21.4795 31.4885 21.404C32.396 21.424 33.2876 21.1641 34.0432 20.6584C34.6429 20.2926 35.1027 19.7388 35.3486 19.0812H39.6564C39.1682 20.9377 38.045 22.5645 36.482 23.6789C34.9349 24.6357 33.1408 25.1168 31.3226 25.0622ZM31.1846 9.98166C30.5129 9.95651 29.845 10.0937 29.2376 10.3815C28.7618 10.6213 28.34 10.9552 27.9982 11.361C27.6983 11.7308 27.4725 12.1586 27.3425 12.6164C27.2271 12.9985 27.1527 13.3919 27.1206 13.7898H35.0807C35.0233 12.7532 34.628 11.7639 33.9553 10.9732C33.587 10.6255 33.1506 10.3579 32.6738 10.1872C32.1969 10.0166 31.6899 9.94659 31.1846 9.98166ZM11.9341 24.5984H0V0.000585623H11.5943C12.6683 -0.00881747 13.7404 0.0950393 14.7927 0.310433C15.6843 0.484347 16.5318 0.830176 17.2935 1.32593C17.9811 1.8017 18.5329 2.44938 18.8927 3.20301C19.2925 4.11056 19.4824 5.09607 19.4524 6.08758C19.4958 7.18426 19.2051 8.26826 18.6188 9.19605C17.9791 10.0816 17.1096 10.7793 16.1081 11.2171C17.4694 11.5569 18.6668 12.3705 19.4864 13.5099C20.246 14.6833 20.6318 16.0607 20.5898 17.458C20.6189 18.5758 20.3732 19.6837 19.8742 20.6844C19.4144 21.5719 18.7468 22.3356 17.9272 22.9093C17.0784 23.4998 16.1305 23.9332 15.1285 24.1886C14.0826 24.4634 13.0055 24.6018 11.9241 24.6004L11.9341 24.5984ZM5.41733 13.6379V20.4145H11.1945C11.7042 20.4205 12.214 20.3685 12.7137 20.2606C13.1715 20.1726 13.6053 19.9947 13.9931 19.7368C14.3664 19.4914 14.6694 19.1532 14.8727 18.7553C15.1085 18.2556 15.2185 17.7078 15.1965 17.1561C15.2443 16.6516 15.1725 16.1429 14.9871 15.6713C14.8016 15.1996 14.5077 14.7783 14.129 14.4415C13.3005 13.8711 12.307 13.59 11.3024 13.6419L5.41733 13.6379ZM5.41733 4.19252V9.93968H10.8986C11.7462 9.97366 12.5818 9.73178 13.2814 9.25002C13.606 8.98047 13.8601 8.63595 14.0217 8.24621C14.1833 7.85648 14.2476 7.43327 14.209 7.01313C14.2259 6.52353 14.1215 6.03735 13.9051 5.59782C13.7097 5.24252 13.4216 4.94684 13.0716 4.74225C12.7029 4.52363 12.2957 4.37773 11.8721 4.31246C11.4108 4.22596 10.9421 4.18512 10.4728 4.19052L5.41733 4.19252ZM36.0842 4.08057H26.1091V1.65177H36.0842V4.08057Z" fill="#889BD3"/>
</svg>
