<svg width="44" height="44" viewBox="0 0 44 44" fill="none" xmlns="http://www.w3.org/2000/svg">
<path d="M30.7181 42V36.2677C30.7951 35.3153 30.6629 34.3578 30.3305 33.459C29.998 32.5602 29.4728 31.7406 28.7899 31.0547C35.2309 30.3556 42.0002 27.9788 42.0002 17.0734C41.9996 14.2848 40.898 11.6031 38.9232 9.58343C39.8583 7.14371 39.7922 4.44701 38.7386 2.05351C38.7386 2.05351 36.3181 1.35445 30.7181 5.00955C26.0166 3.76886 21.0607 3.76886 16.3591 5.00955C10.7591 1.35445 8.33863 2.05351 8.33863 2.05351C7.28504 4.44701 7.21893 7.14371 8.15402 9.58343C6.16453 11.6181 5.06175 14.324 5.07709 17.1333C5.07709 27.9588 11.8463 30.3356 18.2873 31.1146C17.6125 31.7936 17.092 32.6034 16.7598 33.4912C16.4276 34.3791 16.2911 35.3251 16.3591 36.2677V42" stroke="black" stroke-width="3" stroke-linecap="round" stroke-linejoin="round"/>
<path d="M16.359 38.0054C10.2051 39.9488 5.07692 38.0054 2 32.0134" stroke="black" stroke-width="3" stroke-linecap="round" stroke-linejoin="round"/>
</svg>
