<svg width="40" height="40" viewBox="0 0 40 40" fill="none" xmlns="http://www.w3.org/2000/svg">
<path d="M20 11.4815C18.3152 11.4815 16.6682 11.9811 15.2674 12.9171C13.8665 13.8531 12.7747 15.1835 12.1299 16.7401C11.4852 18.2967 11.3165 20.0094 11.6452 21.6619C11.9739 23.3143 12.7852 24.8322 13.9765 26.0235C15.1678 27.2148 16.6857 28.0261 18.3381 28.3548C19.9906 28.6835 21.7033 28.5148 23.2599 27.8701C24.8165 27.2253 26.1469 26.1335 27.0829 24.7326C28.0189 23.3318 28.5185 21.6848 28.5185 20C28.516 17.7415 27.6177 15.5763 26.0207 13.9793C24.4237 12.3823 22.2585 11.484 20 11.4815ZM20 24.0741C19.1942 24.0741 18.4065 23.8351 17.7366 23.3875C17.0666 22.9398 16.5444 22.3035 16.236 21.5591C15.9277 20.8146 15.847 19.9955 16.0042 19.2052C16.1614 18.4149 16.5494 17.689 17.1192 17.1192C17.689 16.5494 18.4149 16.1614 19.2052 16.0042C19.9955 15.847 20.8146 15.9277 21.5591 16.236C22.3035 16.5444 22.9398 17.0666 23.3875 17.7366C23.8351 18.4065 24.0741 19.1942 24.0741 20C24.0728 21.0801 23.6432 22.1157 22.8795 22.8795C22.1157 23.6432 21.0801 24.0728 20 24.0741ZM28.8889 0H11.1111C8.16528 0.00333294 5.34107 1.17503 3.25805 3.25805C1.17503 5.34107 0.00333294 8.16528 0 11.1111V28.8889C0.00333294 31.8347 1.17503 34.6589 3.25805 36.7419C5.34107 38.825 8.16528 39.9967 11.1111 40H28.8889C31.8347 39.9967 34.6589 38.825 36.7419 36.7419C38.825 34.6589 39.9967 31.8347 40 28.8889V11.1111C39.9967 8.16528 38.825 5.34107 36.7419 3.25805C34.6589 1.17503 31.8347 0.00333294 28.8889 0ZM35.5556 28.8889C35.5536 30.6564 34.8506 32.351 33.6008 33.6008C32.351 34.8506 30.6564 35.5536 28.8889 35.5556H11.1111C9.3436 35.5536 7.64905 34.8506 6.39923 33.6008C5.14941 32.351 4.44641 30.6564 4.44444 28.8889V11.1111C4.44641 9.3436 5.14941 7.64905 6.39923 6.39923C7.64905 5.14941 9.3436 4.44641 11.1111 4.44444H28.8889C30.6564 4.44641 32.351 5.14941 33.6008 6.39923C34.8506 7.64905 35.5536 9.3436 35.5556 11.1111V28.8889ZM32.5926 10.3704C32.5926 10.9564 32.4188 11.5292 32.0932 12.0165C31.7677 12.5038 31.3049 12.8835 30.7635 13.1078C30.2221 13.3321 29.6263 13.3907 29.0516 13.2764C28.4768 13.1621 27.9489 12.8799 27.5345 12.4655C27.1201 12.0511 26.8379 11.5232 26.7236 10.9484C26.6093 10.3737 26.6679 9.7779 26.8922 9.23649C27.1165 8.69508 27.4962 8.23233 27.9835 7.90676C28.4708 7.58118 29.0436 7.40741 29.6296 7.40741C30.4152 7.40829 31.1683 7.72074 31.7238 8.27621C32.2793 8.83169 32.5917 9.58481 32.5926 10.3704Z" fill="black"/>
</svg>
